<svg width="720" height="720" viewBox="0 0 720 720" xmlns="http://www.w3.org/2000/svg"><rect width="720" height="720" fill="#212121"/><path d="M 0,720 C 0,720 0,144 0,144 C 59.42583732057416,135.43540669856458 118.85167464114832,126.87081339712918 166,111 C 213.14832535885168,95.12918660287082 248.01913875598086,71.95215311004785 290,93 C 331.98086124401914,114.04784688995215 381.0717703349282,179.3205741626794 424,184 C 466.9282296650718,188.6794258373206 503.6937799043062,132.76555023923444 552,116 C 600.3062200956938,99.23444976076556 660.1531100478469,121.61722488038278 720,144 C 720,144 720,720 720,720 Z" fill="#7d7d7d" opacity="0.12"/><path d="M 0,720 C 0,720 0,288 0,288 C 54.468899521531085,262.4401913875598 108.93779904306217,236.88038277511959 158,252 C 207.06220095693783,267.1196172248804 250.71770334928232,322.9186602870813 297,328 C 343.2822966507177,333.0813397129187 392.1913875598086,287.444976076555 436,264 C 479.8086124401914,240.555023923445 518.5167464114833,239.30143540669857 565,247 C 611.4832535885167,254.69856459330143 665.7416267942583,271.3492822966507 720,288 C 720,288 720,720 720,720 Z" fill="#7d7d7d" opacity="0.24"/><path d="M 0,720 C 0,720 0,432 0,432 C 59.03349282296651,417.89473684210526 118.06698564593302,403.7894736842105 166,400 C 213.93301435406698,396.2105263157895 250.76555023923447,402.7368421052631 294,405 C 337.23444976076553,407.2631578947369 386.8708133971291,405.2631578947369 433,423 C 479.1291866028709,440.7368421052631 521.7511961722488,478.2105263157895 569,483 C 616.2488038277512,487.7894736842105 668.1244019138755,459.89473684210526 720,432 C 720,432 720,720 720,720 Z" fill="#7d7d7d" opacity="0.36"/><path d="M 0,720 C 0,720 0,576 0,576 C 38.411483253588514,556.4114832535885 76.82296650717703,536.822966507177 129,532 C 181.17703349282297,527.177033492823 247.11961722488036,537.1196172248805 301,549 C 354.88038277511964,560.8803827751195 396.69856459330146,574.6985645933015 441,584 C 485.30143540669854,593.3014354066985 532.0861244019138,598.0861244019138 579,596 C 625.9138755980862,593.9138755980862 672.9569377990431,584.9569377990431 720,576 C 720,576 720,720 720,720 Z" fill="#7d7d7d" opacity="0.48"/></svg>